# 3ds Max Wavefront OBJ Exporter v0.97b - (c)2007 guruware
# File Created: 23.12.2016 00:36:30

mtllib hcmwbedsidedrawers.mtl

#
# object draws_case
#

v  -0.4500 -0.4897 0.4750
v  -0.4500 -0.4897 -0.4750
v  0.4500 -0.4897 -0.4750
v  0.4500 -0.4897 0.4750
v  -0.4500 0.3603 0.4750
v  0.4500 0.3603 0.4750
v  0.4500 0.3603 -0.4750
v  -0.4500 0.3603 -0.4750
# 8 vertices

vn 0.0000 -1.0000 -0.0000
vn 0.0000 1.0000 -0.0000
vn 0.0000 0.0000 1.0000
vn 1.0000 0.0000 -0.0000
vn 0.0000 0.0000 -1.0000
vn -1.0000 0.0000 -0.0000
# 6 vertex normals

vt 1.0000 0.0000 0.0005
vt 1.0000 0.4375 0.0005
vt 0.5938 0.4375 0.0005
vt 0.5938 0.0000 0.0005
vt 0.5938 0.0000 0.8497
vt 1.0000 0.0000 0.8497
vt 1.0000 0.4375 0.8497
vt 0.5938 0.4375 0.8497
vt 0.0313 -0.0000 0.0467
vt 0.4375 -0.0000 0.0467
vt 0.4375 0.4063 0.0467
vt 0.0313 0.4063 0.0467
vt -0.0000 -0.0000 0.9496
vt 0.4688 -0.0000 0.9496
vt 0.4688 0.4063 0.9496
vt -0.0000 0.4063 0.9496
vt 0.0313 -0.0000 0.9957
vt 0.4375 -0.0000 0.9957
vt 0.4375 0.4063 0.9957
vt 0.0313 0.4063 0.9957
vt -0.0000 -0.0000 0.0504
vt 0.4688 -0.0000 0.0504
vt 0.4688 0.4063 0.0504
vt -0.0000 0.4063 0.0504
# 24 texture coords

g draws_case
usemtl Material__2
s 2
f 1/1/1 2/2/1 3/3/1 
f 3/3/1 4/4/1 1/1/1 
s 4
f 5/5/2 6/6/2 7/7/2 
f 7/7/2 8/8/2 5/5/2 
s 8
f 1/9/3 4/10/3 6/11/3 
f 6/11/3 5/12/3 1/9/3 
s 16
f 4/13/4 3/14/4 7/15/4 
f 7/15/4 6/16/4 4/13/4 
s 32
f 3/17/5 2/18/5 8/19/5 
f 8/19/5 7/20/5 3/17/5 
s 64
f 2/21/6 1/22/6 5/23/6 
f 5/23/6 8/24/6 2/21/6 
# 12 faces

#
# object draws1
#

v  -0.3500 -0.0249 0.5205
v  -0.3500 -0.0249 -0.0795
v  0.3500 -0.0249 -0.0795
v  0.3500 -0.0249 0.5205
v  -0.3500 0.2751 0.5205
v  0.3500 0.2751 0.5205
v  0.3500 0.2751 -0.0795
v  -0.3500 0.2751 -0.0795
# 8 vertices

vn 0.0000 -1.0000 -0.0000
vn 0.0000 1.0000 -0.0000
vn 0.0000 0.0000 1.0000
vn 1.0000 0.0000 -0.0000
vn 0.0000 0.0000 -1.0000
vn -1.0000 0.0000 -0.0000
# 6 vertex normals

vt 1.0000 0.6250 0.4649
vt 1.0000 0.8438 0.4649
vt 0.7188 0.8438 0.4649
vt 0.7188 0.6250 0.4649
vt 0.7188 0.6250 0.7646
vt 1.0000 0.6250 0.7646
vt 1.0000 0.8438 0.7646
vt 0.7188 0.8438 0.7646
vt 0.7188 0.8438 0.0042
vt 1.0000 0.8438 0.0042
vt 1.0000 1.0000 0.0042
vt 0.7188 1.0000 0.0042
vt 0.7188 0.5000 0.8497
vt 1.0000 0.5000 0.8497
vt 1.0000 0.6250 0.8497
vt 0.7188 0.6250 0.8497
vt 0.7188 0.8438 0.6036
vt 1.0000 0.8438 0.6036
vt 1.0000 1.0000 0.6036
vt 0.7188 1.0000 0.6036
vt 0.7188 0.5000 0.1503
vt 1.0000 0.5000 0.1503
vt 1.0000 0.6250 0.1503
vt 0.7188 0.6250 0.1503
# 24 texture coords

g draws1
usemtl Material__2
s 2
f 9/25/7 10/26/7 11/27/7 
f 11/27/7 12/28/7 9/25/7 
s 4
f 13/29/8 14/30/8 15/31/8 
f 15/31/8 16/32/8 13/29/8 
s 8
f 9/33/9 12/34/9 14/35/9 
f 14/35/9 13/36/9 9/33/9 
s 16
f 12/37/10 11/38/10 15/39/10 
f 15/39/10 14/40/10 12/37/10 
s 32
f 11/41/11 10/42/11 16/43/11 
f 16/43/11 15/44/11 11/41/11 
s 64
f 10/45/12 9/46/12 13/47/12 
f 13/47/12 16/48/12 10/45/12 
# 12 faces

#
# object draws2
#

v  -0.3500 -0.3895 0.5195
v  -0.3500 -0.3895 -0.0805
v  0.3500 -0.3895 -0.0805
v  0.3500 -0.3895 0.5195
v  -0.3500 -0.0895 0.5195
v  0.3500 -0.0895 0.5195
v  0.3500 -0.0895 -0.0805
v  -0.3500 -0.0895 -0.0805
# 8 vertices

vn 0.0000 -1.0000 -0.0000
vn 0.0000 1.0000 -0.0000
vn 0.0000 0.0000 1.0000
vn 1.0000 0.0000 -0.0000
vn 0.0000 0.0000 -1.0000
vn -1.0000 0.0000 -0.0000
# 6 vertex normals

vt 1.0000 0.6250 0.1006
vt 1.0000 0.8438 0.1006
vt 0.7188 0.8438 0.1006
vt 0.7188 0.6250 0.1006
vt 0.7188 0.6250 0.4003
vt 1.0000 0.6250 0.4003
vt 1.0000 0.8438 0.4003
vt 0.7188 0.8438 0.4003
vt 0.7188 0.8438 0.0042
vt 1.0000 0.8438 0.0042
vt 1.0000 1.0000 0.0042
vt 0.7188 1.0000 0.0042
vt 0.7188 0.5000 0.8497
vt 1.0000 0.5000 0.8497
vt 1.0000 0.6250 0.8497
vt 0.7188 0.6250 0.8497
vt 0.7188 0.8438 0.6036
vt 1.0000 0.8438 0.6036
vt 1.0000 1.0000 0.6036
vt 0.7188 1.0000 0.6036
vt 0.7188 0.5000 0.1503
vt 1.0000 0.5000 0.1503
vt 1.0000 0.6250 0.1503
vt 0.7188 0.6250 0.1503
# 24 texture coords

g draws2
usemtl Material__2
s 2
f 17/49/13 18/50/13 19/51/13 
f 19/51/13 20/52/13 17/49/13 
s 4
f 21/53/14 22/54/14 23/55/14 
f 23/55/14 24/56/14 21/53/14 
s 8
f 17/57/15 20/58/15 22/59/15 
f 22/59/15 21/60/15 17/57/15 
s 16
f 20/61/16 19/62/16 23/63/16 
f 23/63/16 22/64/16 20/61/16 
s 32
f 19/65/17 18/66/17 24/67/17 
f 24/67/17 23/68/17 19/65/17 
s 64
f 18/69/18 17/70/18 21/71/18 
f 21/71/18 24/72/18 18/69/18 
# 12 faces

#
# object draws_top
#

v  -0.5000 0.3603 0.5212
v  -0.5000 0.3603 -0.4788
v  0.5000 0.3603 -0.4788
v  0.5000 0.3603 0.5212
v  -0.5000 0.5103 0.5212
v  0.5000 0.5103 0.5212
v  0.5000 0.5103 -0.4788
v  -0.5000 0.5103 -0.4788
# 8 vertices

vn 0.0000 -1.0000 -0.0000
vn 0.0000 1.0000 -0.0000
vn 0.0000 0.0000 1.0000
vn 1.0000 0.0000 -0.0000
vn 0.0000 0.0000 -1.0000
vn -1.0000 0.0000 -0.0000
# 6 vertex normals

vt 0.5000 0.5000 0.8497
vt 0.5000 1.0000 0.8497
vt 0.0000 1.0000 0.8497
vt 0.0000 0.5000 0.8497
vt 0.0000 0.5000 0.9995
vt 0.5000 0.5000 0.9995
vt 0.5000 1.0000 0.9995
vt 0.0000 1.0000 0.9995
vt -0.0000 0.4063 0.0005
vt 0.5000 0.4063 0.0005
vt 0.5000 0.5000 0.0005
vt -0.0000 0.5000 0.0005
vt -0.0000 0.4063 0.9995
vt 0.5000 0.4063 0.9995
vt -0.0000 0.5000 0.9995
# 15 texture coords

g draws_top
usemtl Material__2
s 2
f 25/73/19 26/74/19 27/75/19 
f 27/75/19 28/76/19 25/73/19 
s 4
f 29/77/20 30/78/20 31/79/20 
f 31/79/20 32/80/20 29/77/20 
s 8
f 25/81/21 28/82/21 30/83/21 
f 30/83/21 29/84/21 25/81/21 
s 16
f 28/85/22 27/86/22 31/78/22 
f 31/78/22 30/87/22 28/85/22 
s 32
f 27/85/23 26/86/23 32/78/23 
f 32/78/23 31/87/23 27/85/23 
s 64
f 26/81/24 25/82/24 29/83/24 
f 29/83/24 32/84/24 26/81/24 
# 12 faces

