# 3ds Max Wavefront OBJ Exporter v0.97b - (c)2007 guruware
# File Created: 30.03.2017 02:12:52

mtllib hcmwdoortower.mtl

#
# object hm_tower
#

v  0.0000 0.0000 1.0000
v  0.0000 0.0000 0.8120
v  1.0000 0.0000 0.8120
v  1.0000 0.0000 1.0000
v  0.0000 4.0000 1.0000
v  1.0000 4.0000 1.0000
v  1.0000 4.0000 0.8120
v  0.0000 4.0000 0.8120
v  1.0000 2.0000 1.0000
v  0.0000 2.0000 1.0000
v  0.0000 1.0000 1.0000
v  1.0000 1.0000 1.0000
v  1.0000 2.0000 0.8120
v  1.0000 1.0000 0.8120
v  0.0000 2.0000 0.8120
v  0.0000 1.0000 0.8120
v  0.0000 3.0000 1.0000
v  1.0000 3.0000 1.0000
v  1.0000 3.0000 0.8120
v  0.0000 3.0000 0.8120
# 20 vertices

vn 0.0000 -1.0000 -0.0000
vn 0.0000 1.0000 -0.0000
vn 0.0000 0.0000 1.0000
vn 1.0000 0.0000 -0.0000
vn 0.0000 0.0000 -1.0000
vn -1.0000 0.0000 -0.0000
# 6 vertex normals

vt 0.4844 0.7500 0.0000
vt 0.4844 1.0000 0.0000
vt 0.4375 1.0000 0.0000
vt 0.4375 0.7500 0.0000
vt 0.4375 0.7500 1.0000
vt 0.4844 0.7500 1.0000
vt 0.4844 1.0000 1.0000
vt 0.4375 1.0000 1.0000
vt 0.2500 0.5000 0.0000
vt 0.0000 0.5000 0.0000
vt 0.0000 0.2500 0.0000
vt 0.2500 0.2500 0.0000
vt 0.3438 1.0000 1.0000
vt 0.2969 1.0000 1.0000
vt 0.2969 0.7500 1.0000
vt 0.3438 0.7500 1.0000
vt 0.0000 0.5000 1.0000
vt 0.2500 0.5000 1.0000
vt 0.2500 0.2500 1.0000
vt 0.0000 0.2500 1.0000
vt 0.3438 1.0000 0.0000
vt 0.2969 1.0000 0.0000
vt 0.2969 0.7500 0.0000
vt 0.3438 0.7500 0.0000
vt 0.2500 1.0000 0.0000
vt -0.0000 1.0000 0.0000
vt -0.0000 0.7500 0.0000
vt 0.2500 0.7500 0.0000
vt -0.0000 0.5000 0.0000
vt 0.0000 -0.0000 0.0000
vt 0.2500 -0.0000 0.0000
vt 0.3906 1.0000 1.0000
vt 0.3906 0.7500 1.0000
vt 0.2500 0.7500 1.0000
vt 0.2500 1.0000 1.0000
vt 0.0000 1.0000 1.0000
vt 0.0000 0.7500 1.0000
vt 0.2500 -0.0000 1.0000
vt 0.0000 -0.0000 1.0000
vt 0.3906 1.0000 0.0000
vt 0.3906 0.7500 0.0000
# 41 texture coords

g hm_tower
usemtl CheckerE64
s 2
f 1/1/1 2/2/1 3/3/1 
f 3/3/1 4/4/1 1/1/1 
s 4
f 5/5/2 6/6/2 7/7/2 
f 7/7/2 8/8/2 5/5/2 
s 8
f 9/9/3 10/10/3 11/11/3 
f 11/11/3 12/12/3 9/9/3 
s 16
f 13/13/4 9/14/4 12/15/4 
f 12/15/4 14/16/4 13/13/4 
s 32
f 15/17/5 13/18/5 14/19/5 
f 14/19/5 16/20/5 15/17/5 
s 64
f 10/21/6 15/22/6 16/23/6 
f 16/23/6 11/24/6 10/21/6 
s 8
f 6/25/3 5/26/3 17/27/3 
f 17/27/3 18/28/3 6/25/3 
f 18/28/3 17/27/3 10/29/3 
f 10/29/3 9/9/3 18/28/3 
f 1/30/3 4/31/3 12/12/3 
f 12/12/3 11/11/3 1/30/3 
s 16
f 7/8/4 6/32/4 18/33/4 
f 18/33/4 19/5/4 7/8/4 
f 19/32/4 18/13/4 9/16/4 
f 9/16/4 13/33/4 19/32/4 
f 4/34/4 3/15/4 14/14/4 
f 14/14/4 12/35/4 4/34/4 
s 32
f 8/36/5 7/35/5 19/34/5 
f 19/34/5 20/37/5 8/36/5 
f 20/37/5 19/34/5 13/18/5 
f 13/18/5 15/17/5 20/37/5 
f 3/38/5 2/39/5 16/20/5 
f 16/20/5 14/19/5 3/38/5 
s 64
f 5/3/6 8/40/6 20/41/6 
f 20/41/6 17/4/6 5/3/6 
f 17/40/6 20/21/6 15/24/6 
f 15/24/6 10/41/6 17/40/6 
f 2/28/6 1/23/6 11/22/6 
f 11/22/6 16/25/6 2/28/6 
# 36 faces

