# 3ds Max Wavefront OBJ Exporter v0.97b - (c)2007 guruware
# File Created: 23.12.2016 00:29:00

mtllib hcmwlanternroofhook.mtl

#
# object laternHookRoof
#

v  -0.0466 0.5210 -0.0512
v  0.0574 0.5210 -0.0512
v  0.0574 0.6012 -0.0202
v  -0.0466 0.6012 -0.0202
v  -0.0466 0.4961 0.0015
v  -0.0466 0.5494 0.0581
v  0.0574 0.5494 0.0581
v  0.0574 0.4961 0.0015
v  -0.0466 0.6400 0.0247
v  0.0574 0.6400 0.0247
v  -0.0466 0.4104 -0.0249
v  0.0574 0.4104 -0.0249
v  0.0574 0.4121 0.0860
v  -0.0466 0.4121 0.0860
v  0.0574 0.5404 0.1534
v  -0.0466 0.5404 0.1534
v  0.0574 0.6400 0.1375
v  -0.0466 0.6400 0.1375
v  -0.0466 0.5458 -0.1039
v  0.0574 0.5458 -0.1039
# 20 vertices

vn 0.0000 -0.3605 0.9328
vn 0.0000 0.7282 -0.6854
vn 0.0000 -0.3459 -0.9383
vn -0.0000 -0.3459 -0.9383
vn 0.0000 -0.9999 0.0149
vn 0.0000 -0.4652 0.8852
vn 0.0000 0.1577 0.9875
vn 0.0000 -0.5037 -0.8639
vn 1.0000 0.0000 0.0000
vn 1.0000 -0.0000 0.0000
vn -1.0000 -0.0000 -0.0000
vn -1.0000 0.0000 -0.0000
vn 0.0000 0.9045 0.4264
vn 0.0000 0.8339 -0.5519
# 14 vertex normals

vt 0.7188 0.8750 0.4209
vt 0.8281 0.8750 0.4209
vt 0.8281 1.0000 0.3899
vt 0.7188 1.0000 0.3899
vt 0.7188 1.0000 0.8233
vt 0.7188 0.8750 0.8737
vt 0.8281 0.8750 0.8737
vt 0.8281 1.0000 0.8233
vt 0.8281 0.8750 0.3116
vt 0.8281 1.0000 0.3450
vt 0.7188 1.0000 0.3450
vt 0.7188 0.8750 0.3116
vt 0.8281 1.0000 0.7423
vt 0.7188 1.0000 0.7423
vt 0.7188 0.8750 0.7438
vt 0.8281 0.8750 0.7438
vt 0.7188 0.8750 0.2838
vt 0.8281 0.8750 0.2838
vt 0.8281 1.0000 0.2163
vt 0.7188 1.0000 0.2163
vt 0.7188 0.8750 0.2163
vt 0.8281 0.8750 0.2163
vt 0.8281 1.0000 0.2322
vt 0.7188 1.0000 0.2322
vt 0.8281 1.0000 0.4737
vt 0.7188 1.0000 0.4737
vt 0.7188 0.8750 0.3947
vt 0.8281 0.8750 0.3947
vt 0.5313 0.8594 0.5574
vt 0.6094 0.9375 0.5574
vt 0.6094 0.8438 0.5574
vt 0.5000 0.8125 0.5574
vt 0.4844 0.7656 0.5574
vt 0.4688 0.9219 0.5574
vt 0.4844 1.0000 0.5574
vt 0.3906 0.8750 0.5574
vt 0.3906 0.9688 0.5574
vt 0.3906 0.8750 0.4534
vt 0.4688 0.9219 0.4534
vt 0.4844 1.0000 0.4534
vt 0.3906 0.9688 0.4534
vt 0.5313 0.8594 0.4534
vt 0.6094 0.9375 0.4534
vt 0.4844 0.7656 0.4534
vt 0.6094 0.8438 0.4534
vt 0.5000 0.8125 0.4534
vt 0.7188 0.8750 0.8233
vt 0.8281 0.8750 0.8233
vt 0.8281 1.0000 0.8468
vt 0.7188 1.0000 0.8468
vt 0.4219 0.8438 0.4534
vt 0.4219 0.8438 0.5574
vt 0.8281 1.0000 0.8703
vt 0.7188 1.0000 0.8703
vt 0.7188 0.8750 0.9227
vt 0.8281 0.8750 0.9227
# 56 texture coords

g laternHookRoof
usemtl 04___Default
s off
f 1/1/1 2/2/1 3/3/1 
f 3/3/1 4/4/1 1/1/1 
f 5/5/2 6/6/2 7/7/2 
f 7/7/2 8/8/2 5/5/2 
f 6/9/3 9/10/3 10/11/3 
f 10/11/4 7/12/4 6/9/4 
f 11/13/5 12/14/5 13/15/5 
f 13/15/5 14/16/5 11/13/5 
f 14/17/6 13/18/6 15/19/6 
f 15/19/6 16/20/6 14/17/6 
f 16/21/7 15/22/7 17/23/7 
f 17/23/7 18/24/7 16/21/7 
f 19/25/8 20/26/8 12/27/8 
f 12/27/8 11/28/8 19/25/8 
f 8/29/9 13/30/9 12/31/9 
f 2/32/9 8/29/9 12/31/9 
f 20/33/9 2/32/9 12/31/9 
f 13/30/10 8/29/10 7/34/10 
f 7/34/10 15/35/10 13/30/10 
f 7/34/9 10/36/9 17/37/9 
f 17/37/9 15/35/9 7/34/9 
f 9/38/11 6/39/11 16/40/11 
f 16/40/11 18/41/11 9/38/11 
f 6/39/12 5/42/12 14/43/12 
f 14/43/12 16/40/12 6/39/12 
f 19/44/11 11/45/11 14/43/11 
f 1/46/12 19/44/12 14/43/12 
f 5/42/12 1/46/12 14/43/12 
f 5/47/13 8/48/13 2/49/13 
f 2/49/13 1/50/13 5/47/13 
f 19/44/12 1/46/12 4/51/12 
f 2/33/10 20/32/10 3/52/10 
f 20/53/14 19/54/14 4/55/14 
f 4/55/14 3/56/14 20/53/14 
# 34 faces

