# 3ds Max Wavefront OBJ Exporter v0.97b - (c)2007 guruware
# File Created: 23.12.2016 20:52:45

mtllib hcmwcandleholder.mtl

#
# object cnadlebase
#

v  0.2586 0.0000 0.7414
v  0.2586 0.0000 0.2586
v  0.7414 0.0000 0.2586
v  0.7414 0.0000 0.7414
v  0.7414 0.1044 0.7414
v  0.2586 0.1044 0.7414
v  0.7414 0.1044 0.2586
v  0.2586 0.1044 0.2586
# 8 vertices

vn 0.0000 -1.0000 -0.0000
vn 0.0000 0.0000 1.0000
vn 1.0000 0.0000 -0.0000
vn 0.0000 0.0000 -1.0000
vn -1.0000 0.0000 -0.0000
vn 0.0000 1.0000 -0.0000
# 6 vertex normals

vt 0.8750 0.0000 0.0005
vt 0.8750 0.2500 0.0005
vt 0.6250 0.2500 0.0005
vt 0.6250 -0.0000 0.0005
vt 0.6250 0.2500 0.1281
vt 0.8750 0.2500 0.1281
vt 0.8750 0.3125 0.1281
vt 0.6250 0.3125 0.1281
vt 0.6250 0.2500 0.7414
vt 0.8750 0.2500 0.7414
vt 0.8750 0.3125 0.7414
vt 0.6250 0.3125 0.7414
vt 0.6250 0.2500 0.6110
vt 0.8750 0.2500 0.6110
vt 0.8750 0.3125 0.6110
vt 0.6250 0.3125 0.6110
vt 0.6250 0.2500 0.2586
vt 0.8750 0.2500 0.2586
vt 0.8750 0.3125 0.2586
vt 0.6250 0.3125 0.2586
vt 0.6250 0.5000 0.0992
vt 0.3750 0.5000 0.0992
vt 0.3750 0.2500 0.0992
vt 0.6250 0.2500 0.0992
# 24 texture coords

g cnadlebase
usemtl 04___Default
s off
f 1/1/1 2/2/1 3/3/1 
f 3/3/1 4/4/1 1/1/1 
f 1/5/2 4/6/2 5/7/2 
f 5/7/2 6/8/2 1/5/2 
f 4/9/3 3/10/3 7/11/3 
f 7/11/3 5/12/3 4/9/3 
f 3/13/4 2/14/4 8/15/4 
f 8/15/4 7/16/4 3/13/4 
f 2/17/5 1/18/5 6/19/5 
f 6/19/5 8/20/5 2/17/5 
f 7/21/6 8/22/6 6/23/6 
f 6/23/6 5/24/6 7/21/6 
# 12 faces

#
# object candlecandle
#

v  0.4335 0.3691 0.5665
v  0.5665 0.3691 0.5665
v  0.5665 0.3691 0.4335
v  0.4335 0.3691 0.4335
v  0.4335 0.0827 0.5665
v  0.5665 0.0827 0.5665
v  0.5665 0.0827 0.4335
v  0.4335 0.0827 0.4335
# 8 vertices

vn 0.0000 1.0000 -0.0000
vn 0.0000 0.0000 1.0000
vn 1.0000 0.0000 -0.0000
vn 0.0000 0.0000 -1.0000
vn -1.0000 0.0000 -0.0000
# 5 vertex normals

vt 0.8594 0.6250 0.2261
vt 1.0000 0.6250 0.2261
vt 1.0000 0.7656 0.2261
vt 0.8594 0.7656 0.2261
vt 0.8594 0.4688 0.3031
vt 1.0000 0.4688 0.3031
vt 1.0000 0.6250 0.3031
vt 0.8594 0.6250 0.3031
vt 0.8594 0.3125 0.5665
vt 1.0000 0.3125 0.5665
vt 1.0000 0.4688 0.5665
vt 0.8594 0.4688 0.5665
vt 0.8594 0.4688 0.4361
vt 1.0000 0.4688 0.4361
vt 1.0000 0.6250 0.4361
vt 0.8594 0.6250 0.4361
vt 0.8594 0.3125 0.4335
vt 1.0000 0.3125 0.4335
vt 1.0000 0.4688 0.4335
vt 0.8594 0.4688 0.4335
# 20 texture coords

g candlecandle
usemtl 04___Default
s 4
f 9/25/7 10/26/7 11/27/7 
f 11/27/7 12/28/7 9/25/7 
s 8
f 13/29/8 14/30/8 10/31/8 
f 10/31/8 9/32/8 13/29/8 
s 16
f 14/33/9 15/34/9 11/35/9 
f 11/35/9 10/36/9 14/33/9 
s 32
f 15/37/10 16/38/10 12/39/10 
f 12/39/10 11/40/10 15/37/10 
s 64
f 16/41/11 13/42/11 9/43/11 
f 9/43/11 12/44/11 16/41/11 
# 10 faces

#
# object candlebasehandle
#

v  0.4534 0.0488 0.8747
v  0.5574 0.0488 0.8747
v  0.5574 0.0140 0.7960
v  0.4534 0.0140 0.7960
v  0.4534 0.1036 0.8550
v  0.4534 0.1060 0.7772
v  0.5574 0.1060 0.7772
v  0.5574 0.1036 0.8550
v  0.4534 0.0184 0.7368
v  0.5574 0.0184 0.7368
v  0.4534 0.1455 0.9343
v  0.5574 0.1455 0.9343
v  0.5574 0.2228 0.8547
v  0.4534 0.2228 0.8547
v  0.5574 0.1797 0.7162
v  0.4534 0.1797 0.7162
v  0.5574 0.0981 0.6571
v  0.4534 0.0981 0.6571
v  0.4534 -0.0060 0.8943
v  0.5574 -0.0060 0.8943
# 20 vertices

vn 0.0000 0.9145 -0.4047
vn 0.0000 -0.9995 -0.0302
vn 0.0000 -0.4189 0.9080
vn -0.0000 -0.4189 0.9080
vn 0.0000 0.7175 0.6965
vn 0.0000 0.9549 -0.2970
vn 0.0000 0.5867 -0.8098
vn 0.0000 -0.2547 0.9670
vn 1.0000 0.0000 -0.0000
vn 1.0000 0.0000 0.0000
vn -1.0000 -0.0000 0.0000
vn -1.0000 -0.0000 -0.0000
vn 0.0000 -0.3380 -0.9411
vn 0.0000 -0.9799 -0.1995
# 14 vertex normals

vt 0.7188 0.8750 0.4209
vt 0.8281 0.8750 0.4209
vt 0.8281 1.0000 0.3899
vt 0.7188 1.0000 0.3899
vt 0.7188 1.0000 0.8233
vt 0.7188 0.8750 0.8737
vt 0.8281 0.8750 0.8737
vt 0.8281 1.0000 0.8233
vt 0.8281 0.8750 0.3116
vt 0.8281 1.0000 0.3450
vt 0.7188 1.0000 0.3450
vt 0.7188 0.8750 0.3116
vt 0.8281 1.0000 0.7423
vt 0.7188 1.0000 0.7423
vt 0.7188 0.8750 0.7438
vt 0.8281 0.8750 0.7438
vt 0.7188 0.8750 0.2838
vt 0.8281 0.8750 0.2838
vt 0.8281 1.0000 0.2163
vt 0.7188 1.0000 0.2163
vt 0.7188 0.8750 0.2163
vt 0.8281 0.8750 0.2163
vt 0.8281 1.0000 0.2322
vt 0.7188 1.0000 0.2322
vt 0.8281 1.0000 0.4737
vt 0.7188 1.0000 0.4737
vt 0.7188 0.8750 0.3947
vt 0.8281 0.8750 0.3947
vt 0.5313 0.8594 0.5574
vt 0.6094 0.9375 0.5574
vt 0.6094 0.8438 0.5574
vt 0.5000 0.8125 0.5574
vt 0.4844 0.7656 0.5574
vt 0.4688 0.9219 0.5574
vt 0.4844 1.0000 0.5574
vt 0.3906 0.8750 0.5574
vt 0.3906 0.9688 0.5574
vt 0.3906 0.8750 0.4534
vt 0.4688 0.9219 0.4534
vt 0.4844 1.0000 0.4534
vt 0.3906 0.9688 0.4534
vt 0.5313 0.8594 0.4534
vt 0.6094 0.9375 0.4534
vt 0.4844 0.7656 0.4534
vt 0.6094 0.8438 0.4534
vt 0.5000 0.8125 0.4534
vt 0.7188 0.8750 0.8233
vt 0.8281 0.8750 0.8233
vt 0.8281 1.0000 0.8468
vt 0.7188 1.0000 0.8468
vt 0.4219 0.8438 0.4534
vt 0.4219 0.8438 0.5574
vt 0.8281 1.0000 0.8703
vt 0.7188 1.0000 0.8703
vt 0.7188 0.8750 0.9227
vt 0.8281 0.8750 0.9227
# 56 texture coords

g candlebasehandle
usemtl 04___Default
s off
f 17/45/12 18/46/12 19/47/12 
f 19/47/12 20/48/12 17/45/12 
f 21/49/13 22/50/13 23/51/13 
f 23/51/13 24/52/13 21/49/13 
f 22/53/14 25/54/14 26/55/14 
f 26/55/15 23/56/15 22/53/15 
f 27/57/16 28/58/16 29/59/16 
f 29/59/16 30/60/16 27/57/16 
f 30/61/17 29/62/17 31/63/17 
f 31/63/17 32/64/17 30/61/17 
f 32/65/18 31/66/18 33/67/18 
f 33/67/18 34/68/18 32/65/18 
f 35/69/19 36/70/19 28/71/19 
f 28/71/19 27/72/19 35/69/19 
f 24/73/20 29/74/20 28/75/20 
f 18/76/20 24/73/20 28/75/20 
f 36/77/20 18/76/20 28/75/20 
f 29/74/21 24/73/21 23/78/21 
f 23/78/21 31/79/21 29/74/21 
f 23/78/20 26/80/20 33/81/20 
f 33/81/20 31/79/20 23/78/20 
f 25/82/22 22/83/22 32/84/22 
f 32/84/22 34/85/22 25/82/22 
f 22/83/23 21/86/23 30/87/23 
f 30/87/23 32/84/23 22/83/23 
f 35/88/22 27/89/22 30/87/22 
f 17/90/22 35/88/22 30/87/22 
f 21/86/22 17/90/22 30/87/22 
f 21/91/24 24/92/24 18/93/24 
f 18/93/24 17/94/24 21/91/24 
f 35/88/23 17/90/23 20/95/23 
f 18/77/21 36/76/21 19/96/21 
f 36/97/25 35/98/25 20/99/25 
f 20/99/25 19/100/25 36/97/25 
# 34 faces

