# 3ds Max Wavefront OBJ Exporter v0.97b - (c)2007 guruware
# File Created: 23.12.2016 20:50:57

mtllib hcmwlanternbody.mtl

#
# object lanternbody
#

v  0.2586 0.0000 0.7414
v  0.2586 0.0000 0.2586
v  0.7414 0.0000 0.2586
v  0.7414 0.0000 0.7414
v  0.3318 0.7484 0.6682
v  0.6682 0.7484 0.6682
v  0.6682 0.7484 0.3318
v  0.3318 0.7484 0.3318
v  0.7414 0.6484 0.7414
v  0.2586 0.6484 0.7414
v  0.2586 0.5440 0.7414
v  0.7414 0.5440 0.7414
v  0.7414 0.1044 0.7414
v  0.2586 0.1044 0.7414
v  0.7414 0.6484 0.2586
v  0.7414 0.5440 0.2586
v  0.7414 0.1044 0.2586
v  0.2586 0.6484 0.2586
v  0.2586 0.5440 0.2586
v  0.2586 0.1044 0.2586
v  0.6682 0.6484 0.6682
v  0.3318 0.6484 0.6682
v  0.6682 0.6484 0.3318
v  0.3318 0.6484 0.3318
# 24 vertices

vn 0.0000 -1.0000 -0.0000
vn 0.0000 1.0000 -0.0000
vn 0.0000 -0.0000 1.0000
vn 0.0000 0.0000 1.0000
vn 1.0000 0.0000 -0.0000
vn 0.0000 0.0000 -1.0000
vn -1.0000 0.0000 -0.0000
# 7 vertex normals

vt 0.8750 -0.0000 0.0005
vt 0.8750 0.2500 0.0005
vt 0.6250 0.2500 0.0005
vt 0.6250 -0.0000 0.0005
vt 0.6250 0.3750 0.7081
vt 0.7813 0.3750 0.7081
vt 0.7813 0.5313 0.7081
vt 0.6250 0.5313 0.7081
vt 0.8750 0.3125 0.1281
vt 0.6250 0.3125 0.1281
vt 0.6250 0.2500 0.1281
vt 0.8750 0.2500 0.1281
vt 0.8750 0.3125 0.7414
vt 0.6250 0.3125 0.7414
vt 0.6250 0.2500 0.7414
vt 0.8750 0.2500 0.7414
vt 0.8750 0.3125 0.6110
vt 0.6250 0.3125 0.6110
vt 0.6250 0.2500 0.6110
vt 0.8750 0.2500 0.6110
vt 0.8750 0.3125 0.2586
vt 0.6250 0.3125 0.2586
vt 0.6250 0.2500 0.2586
vt 0.8750 0.2500 0.2586
vt 0.6250 0.2500 0.5148
vt 0.3750 0.2500 0.5148
vt 0.3750 0.0000 0.5148
vt 0.6250 0.0000 0.5148
vt 0.6250 0.5000 0.0992
vt 0.3750 0.5000 0.0992
vt 0.3750 0.2500 0.0992
vt 0.6250 0.2500 0.0992
vt 0.3750 0.0000 0.6135
vt 0.6250 0.0000 0.6135
vt 0.5781 0.0469 0.6135
vt 0.4219 0.0469 0.6135
vt 0.6250 0.2500 0.6135
vt 0.5781 0.2031 0.6135
vt 0.3750 0.2500 0.6135
vt 0.4219 0.2031 0.6135
vt 0.6250 0.3125 0.2013
vt 0.7813 0.3125 0.2013
vt 0.7813 0.3750 0.2013
vt 0.6250 0.3750 0.2013
vt 0.6250 0.3125 0.6682
vt 0.7813 0.3125 0.6682
vt 0.7813 0.3750 0.6682
vt 0.6250 0.3750 0.6682
vt 0.6250 0.3125 0.5378
vt 0.7813 0.3125 0.5378
vt 0.7813 0.3750 0.5378
vt 0.6250 0.3750 0.5378
vt 0.6250 0.3125 0.3318
vt 0.7813 0.3125 0.3318
vt 0.7813 0.3750 0.3318
vt 0.6250 0.3750 0.3318
# 56 texture coords

g lanternbody
usemtl 04___Default
s off
f 1/1/1 2/2/1 3/3/1 
f 3/3/1 4/4/1 1/1/1 
f 5/5/2 6/6/2 7/7/2 
f 7/7/2 8/8/2 5/5/2 
f 9/9/3 10/10/3 11/11/3 
f 11/11/3 12/12/3 9/9/3 
f 1/11/4 4/12/4 13/9/4 
f 13/9/4 14/10/4 1/11/4 
f 15/13/5 9/14/5 12/15/5 
f 12/15/5 16/16/5 15/13/5 
f 4/15/5 3/16/5 17/13/5 
f 17/13/5 13/14/5 4/15/5 
f 18/17/6 15/18/6 16/19/6 
f 16/19/6 19/20/6 18/17/6 
f 3/19/6 2/20/6 20/17/6 
f 20/17/6 17/18/6 3/19/6 
f 10/21/7 18/22/7 19/23/7 
f 19/23/7 11/24/7 10/21/7 
f 2/23/7 1/24/7 14/21/7 
f 14/21/7 20/22/7 2/23/7 
f 19/25/1 16/26/1 12/27/1 
f 12/27/1 11/28/1 19/25/1 
f 17/29/2 20/30/2 14/31/2 
f 14/31/2 13/32/2 17/29/2 
f 10/33/2 9/34/2 21/35/2 
f 21/35/2 22/36/2 10/33/2 
f 9/34/2 15/37/2 23/38/2 
f 23/38/2 21/35/2 9/34/2 
f 15/37/2 18/39/2 24/40/2 
f 24/40/2 23/38/2 15/37/2 
f 18/39/2 10/33/2 22/36/2 
f 22/36/2 24/40/2 18/39/2 
f 22/41/4 21/42/4 6/43/4 
f 6/43/4 5/44/4 22/41/4 
f 21/45/5 23/46/5 7/47/5 
f 7/47/5 6/48/5 21/45/5 
f 23/49/6 24/50/6 8/51/6 
f 8/51/6 7/52/6 23/49/6 
f 24/53/7 22/54/7 5/55/7 
f 5/55/7 8/56/7 24/53/7 
# 40 faces

#
# object lanternframe
#

v  0.3124 0.1040 0.6876
v  0.6876 0.1040 0.6876
v  0.6876 0.5440 0.6876
v  0.3124 0.5440 0.6876
v  0.6876 0.1040 0.3124
v  0.6876 0.5440 0.3124
v  0.3124 0.1040 0.3124
v  0.3124 0.5440 0.3124
# 8 vertices

vn 0.0000 0.0000 1.0000
vn 1.0000 0.0000 -0.0000
vn 0.0000 0.0000 -1.0000
vn -1.0000 0.0000 -0.0000
# 4 vertex normals

vt -0.0000 -0.0000 0.1819
vt 0.3750 -0.0000 0.1819
vt 0.3750 0.4375 0.1819
vt -0.0000 0.4375 0.1819
vt -0.0000 0.0000 0.6876
vt 0.3750 0.0000 0.6876
vt 0.3750 0.4375 0.6876
vt -0.0000 0.4375 0.6876
vt -0.0000 -0.0000 0.5572
vt 0.3750 -0.0000 0.5572
vt 0.3750 0.4375 0.5572
vt -0.0000 0.4375 0.5572
vt -0.0000 -0.0000 0.3124
vt 0.3750 -0.0000 0.3124
vt 0.3750 0.4375 0.3124
vt -0.0000 0.4375 0.3124
# 16 texture coords

g lanternframe
usemtl 04___Default
s off
f 25/57/8 26/58/8 27/59/8 
f 27/59/8 28/60/8 25/57/8 
f 26/61/9 29/62/9 30/63/9 
f 30/63/9 27/64/9 26/61/9 
f 29/65/10 31/66/10 32/67/10 
f 32/67/10 30/68/10 29/65/10 
f 31/69/11 25/70/11 28/71/11 
f 28/71/11 32/72/11 31/69/11 
# 8 faces

#
# object lanternloop2
#

v  0.3827 0.9405 0.5000
v  0.3827 0.6926 0.5000
v  0.6306 0.9405 0.5000
v  0.6306 0.6926 0.5000
# 4 vertices

vn 0.0000 -0.0000 1.0000
# 1 vertex normals

vt -0.0000 0.6719 0.3696
vt -0.0000 0.4375 0.3696
vt 0.2344 0.6719 0.3696
vt 0.2344 0.4375 0.3696
# 4 texture coords

g lanternloop2
usemtl 04___Default
s 1
f 33/73/12 34/74/12 35/75/12 
f 36/76/12 35/75/12 34/74/12 
# 2 faces

#
# object lanterncandle
#

v  0.4335 0.2386 0.5665
v  0.5665 0.2386 0.5665
v  0.5665 0.2386 0.4335
v  0.4335 0.2386 0.4335
v  0.4335 0.0827 0.5665
v  0.5665 0.0827 0.5665
v  0.5665 0.0827 0.4335
v  0.4335 0.0827 0.4335
# 8 vertices

vn 0.0000 1.0000 -0.0000
vn 0.0000 0.0000 1.0000
vn 1.0000 0.0000 -0.0000
vn 0.0000 0.0000 -1.0000
vn -1.0000 0.0000 -0.0000
# 5 vertex normals

vt 0.8594 0.6250 0.2261
vt 1.0000 0.6250 0.2261
vt 1.0000 0.7656 0.2261
vt 0.8594 0.7656 0.2261
vt 0.8594 0.4688 0.3031
vt 1.0000 0.4688 0.3031
vt 1.0000 0.6250 0.3031
vt 0.8594 0.6250 0.3031
vt 0.8594 0.3125 0.5665
vt 1.0000 0.3125 0.5665
vt 1.0000 0.4688 0.5665
vt 0.8594 0.4688 0.5665
vt 0.8594 0.4688 0.4361
vt 1.0000 0.4688 0.4361
vt 1.0000 0.6250 0.4361
vt 0.8594 0.6250 0.4361
vt 0.8594 0.3125 0.4335
vt 1.0000 0.3125 0.4335
vt 1.0000 0.4688 0.4335
vt 0.8594 0.4688 0.4335
# 20 texture coords

g lanterncandle
usemtl 04___Default
s 4
f 37/77/13 38/78/13 39/79/13 
f 39/79/13 40/80/13 37/77/13 
s 8
f 41/81/14 42/82/14 38/83/14 
f 38/83/14 37/84/14 41/81/14 
s 16
f 42/85/15 43/86/15 39/87/15 
f 39/87/15 38/88/15 42/85/15 
s 32
f 43/89/16 44/90/16 40/91/16 
f 40/91/16 39/92/16 43/89/16 
s 64
f 44/93/17 41/94/17 37/95/17 
f 37/95/17 40/96/17 44/93/17 
# 10 faces

#
# object lanternloop1
#

v  0.6306 0.9405 0.5000
v  0.6306 0.6926 0.5000
v  0.3827 0.9405 0.5000
v  0.3827 0.6926 0.5000
# 4 vertices

vn -0.0000 -0.0000 -1.0000
# 1 vertex normals

vt -0.0000 0.6719 0.3696
vt -0.0000 0.4375 0.3696
vt 0.2344 0.6719 0.3696
vt 0.2344 0.4375 0.3696
# 4 texture coords

g lanternloop1
usemtl 04___Default
s 1
f 45/97/18 46/98/18 47/99/18 
f 48/100/18 47/99/18 46/98/18 
# 2 faces

